<svg width="20" height="12" viewBox="0 0 20 12" fill="none" xmlns="http://www.w3.org/2000/svg">
<path fill-rule="evenodd" clip-rule="evenodd" d="M17.0192 11.0101V6.86629H18.6304V11.0101C18.6303 11.0834 18.6011 11.1537 18.5493 11.2055C18.4974 11.2574 18.4272 11.2865 18.3539 11.2867H17.2958C17.2225 11.2865 17.1522 11.2574 17.1004 11.2055C17.0486 11.1537 17.0194 11.0834 17.0192 11.0101ZM0.276494 5.25502H19.7234C19.7967 5.25516 19.867 5.28434 19.9188 5.33617C19.9706 5.38801 19.9998 5.45827 19.9999 5.53158V6.58973C19.9998 6.66304 19.9706 6.73329 19.9188 6.78513C19.8669 6.83696 19.7967 6.86614 19.7234 6.86629H0.276494C0.203192 6.86614 0.132934 6.83696 0.0811015 6.78513C0.0292691 6.73329 8.51308e-05 6.66304 -6.10352e-05 6.58973V5.53158C7.05615e-05 5.45827 0.0292498 5.38801 0.0810854 5.33617C0.132921 5.28434 0.203187 5.25516 0.276494 5.25502ZM0.961243 3.79358H19.0386C19.1119 3.79345 19.1822 3.76427 19.234 3.71243C19.2859 3.6606 19.3151 3.59033 19.3152 3.51703V0.989812C19.3151 0.916505 19.2859 0.846239 19.234 0.794404C19.1822 0.742568 19.1119 0.713388 19.0386 0.713257H0.961243C0.887937 0.713388 0.817671 0.742568 0.765835 0.794404C0.714 0.846239 0.68482 0.916505 0.684689 0.989812V3.51697C0.68482 3.59028 0.714 3.66054 0.765835 3.71238C0.817671 3.76421 0.887937 3.79345 0.961243 3.79358ZM1.36944 11.0101V6.86629H2.98043V11.0101C2.98028 11.0834 2.9511 11.1537 2.89926 11.2055C2.84743 11.2574 2.77717 11.2865 2.70387 11.2867H1.64599C1.57269 11.2865 1.50243 11.2574 1.4506 11.2055C1.39877 11.1537 1.36958 11.0834 1.36944 11.0101Z" fill="#8D8E92"/>
</svg>
